<svg aria-hidden="true" xmlns="http://www.w3.org/2000/svg" xmlns:xlink="http://www.w3.org/1999/xlink"><symbol viewBox="0 0 17 16" id="arrow" xmlns="http://www.w3.org/2000/svg">
<path d="M8.83329 9.32145L4.54857 4.9107C4.23243 4.58527 3.71987 4.58527 3.40373 4.9107C3.08759 5.23614 3.08759 5.76378 3.40373 6.08921L8.26087 11.0892C8.57701 11.4147 9.08957 11.4147 9.40571 11.0892L14.2629 6.08922C14.579 5.76378 14.579 5.23614 14.2629 4.9107C13.9467 4.58527 13.4342 4.58527 13.118 4.9107L8.83329 9.32145Z" fill-opacity="0.4"/>
</symbol><symbol viewBox="0 0 28 26" id="chevron-down" xmlns="http://www.w3.org/2000/svg">
<path fill-rule="evenodd" clip-rule="evenodd" d="M6.17569 8.64006C6.6313 8.23326 7.37 8.23326 7.82561 8.64006L14.0007 14.1535L20.1757 8.64006C20.6313 8.23326 21.37 8.23326 21.8256 8.64006C22.2812 9.04685 22.2812 9.7064 21.8256 10.1132L15.0318 16.1791C14.4623 16.6875 13.539 16.6876 12.9695 16.1791L6.17569 10.1132C5.72008 9.7064 5.72008 9.04685 6.17569 8.64006Z" fill-opacity="0.9"/>
</symbol><symbol viewBox="0 0 24 24" id="cross" xmlns="http://www.w3.org/2000/svg">
<path fill-rule="evenodd" clip-rule="evenodd" d="M4.26035 4.26035C4.60748 3.91322 5.1703 3.91322 5.51743 4.26035L12 10.7429L18.4826 4.26035C18.8297 3.91322 19.3925 3.91322 19.7397 4.26035C20.0868 4.60748 20.0868 5.1703 19.7397 5.51743L13.2571 12L19.7397 18.4826C20.0868 18.8297 20.0868 19.3925 19.7397 19.7397C19.3925 20.0868 18.8297 20.0868 18.4826 19.7397L12 13.2571L5.51743 19.7397C5.1703 20.0868 4.60748 20.0868 4.26035 19.7397C3.91322 19.3925 3.91322 18.8297 4.26035 18.4826L10.7429 12L4.26035 5.51743C3.91322 5.1703 3.91322 4.60748 4.26035 4.26035Z"/>
</symbol><symbol viewBox="0 0 30 30" id="email" xmlns="http://www.w3.org/2000/svg">
<path d="M23.75 12.5317V6.25002C23.75 4.87125 22.6288 3.75 21.25 3.75H2.49996C1.12119 3.75 0 4.87119 0 6.25002V18.75C0 20.1288 1.12119 21.25 2.50002 21.25H16.5165C17.3354 24.1313 19.9847 26.25 23.125 26.25C24.3335 26.25 25.5219 25.932 26.5631 25.3296C26.8616 25.1569 26.9641 24.7748 26.7908 24.4757C26.618 24.1767 26.2354 24.0735 25.9369 24.2481C25.086 24.74 24.1137 25 23.125 25C20.0231 25 17.5 22.4768 17.5 19.375C17.5 16.2732 20.0232 13.75 23.125 13.75C26.2267 13.75 28.75 16.2732 28.75 19.375V20C28.75 20.6891 28.189 21.25 27.5 21.25C26.8109 21.25 26.25 20.6891 26.25 20V17.5C26.25 17.1546 25.9704 16.875 25.625 16.875C25.4569 16.875 25.3058 16.943 25.1936 17.0508C24.6412 16.5585 23.9213 16.25 23.125 16.25C21.402 16.25 20 17.652 20 19.375C20 21.098 21.402 22.5 23.125 22.5C24.0564 22.5 24.8846 22.0822 25.4576 21.4335C25.9104 22.0767 26.6553 22.5 27.5 22.5C28.8788 22.5 30 21.3788 30 20V19.375C30 15.7951 27.2487 12.8489 23.75 12.5317ZM2.50002 4.99998H21.25C21.276 4.99998 21.2978 5.01328 21.3235 5.01486L12.3889 12.3486C12.071 12.5488 11.6101 12.5073 11.4032 12.3804L2.4273 5.01475C2.45268 5.01322 2.47424 4.99998 2.50002 4.99998ZM22.5 12.5317C19.0013 12.8489 16.25 15.7951 16.25 19.375C16.25 19.586 16.2629 19.7938 16.2816 20H2.50002C1.81096 20 1.25004 19.4391 1.25004 18.7501V6.25002C1.25004 6.07301 1.28912 5.90584 1.3558 5.75314L10.6654 13.3875C11.0291 13.6249 11.4472 13.7501 11.8751 13.7501C12.2865 13.7501 12.6887 13.6341 13.0427 13.4144C13.0781 13.3955 13.1116 13.3729 13.1434 13.3467L22.3942 5.75303C22.4609 5.90584 22.5001 6.07301 22.5001 6.25008V12.5317H22.5ZM23.125 21.25C22.0911 21.25 21.25 20.409 21.25 19.375C21.25 18.3411 22.0911 17.5 23.125 17.5C24.159 17.5 25 18.3411 25 19.375C25 20.409 24.159 21.25 23.125 21.25Z"/>
</symbol><symbol viewBox="0 0 30 30" id="instagram" xmlns="http://www.w3.org/2000/svg">
<g clip-path="url(#eclip0_1902_97)">
<path d="M21.8792 0H8.12071C3.64288 0 0 3.64288 0 8.12071V21.8795C0 26.3571 3.64288 29.9999 8.12071 29.9999H21.8795C26.3571 29.9999 29.9999 26.3571 29.9999 21.8795V8.12071C29.9999 3.64288 26.3571 0 21.8792 0ZM28.2412 21.8795C28.2412 25.3873 25.3873 28.2412 21.8792 28.2412H8.12071C4.61265 28.2412 1.75873 25.3873 1.75873 21.8795V8.12071C1.75873 4.61265 4.61265 1.75873 8.12071 1.75873H21.8795C25.3873 1.75873 28.2412 4.61265 28.2412 8.12071V21.8795Z"/>
<path d="M14.9998 6.79688C10.4766 6.79688 6.79688 10.4766 6.79688 14.9998C6.79688 19.5229 10.4766 23.2026 14.9998 23.2026C19.5229 23.2026 23.2026 19.5229 23.2026 14.9998C23.2026 10.4766 19.5229 6.79688 14.9998 6.79688ZM14.9998 21.4439C11.4466 21.4439 8.5556 18.5531 8.5556 14.9998C8.5556 11.4466 11.4466 8.5556 14.9998 8.5556C18.5531 8.5556 21.4439 11.4466 21.4439 14.9998C21.4439 18.5531 18.5531 21.4439 14.9998 21.4439Z"/>
<path d="M23.3994 3.88379C22.0628 3.88379 20.9756 4.9712 20.9756 6.30764C20.9756 7.64431 22.0628 8.73173 23.3994 8.73173C24.7361 8.73173 25.8235 7.64431 25.8235 6.30764C25.8235 4.97098 24.7361 3.88379 23.3994 3.88379ZM23.3994 6.97277C23.0328 6.97277 22.7343 6.67431 22.7343 6.30764C22.7343 5.94075 23.0328 5.64251 23.3994 5.64251C23.7663 5.64251 24.0648 5.94075 24.0648 6.30764C24.0648 6.67431 23.7663 6.97277 23.3994 6.97277Z"/>
</g>
<defs>
<clipPath id="eclip0_1902_97">
<rect width="30" height="30"/>
</clipPath>
</defs>
</symbol><symbol viewBox="0 0 30 30" id="phone" xmlns="http://www.w3.org/2000/svg">
<path d="M17.5 1.5H12.5C12.224 1.5 12 1.724 12 1.99998C12 2.27596 12.224 2.49996 12.5 2.49996H17.5C17.7759 2.49996 17.9999 2.27596 17.9999 1.99998C17.9999 1.724 17.7759 1.5 17.5 1.5Z"/>
<path d="M21 1.5H20.5C20.224 1.5 20 1.724 20 1.99998C20 2.27596 20.224 2.49996 20.5 2.49996H21C21.2759 2.49996 21.4999 2.27596 21.4999 1.99998C21.4999 1.724 21.2759 1.5 21 1.5Z"/>
<path d="M15.621 25.5H14.3795C13.619 25.5 13 26.119 13 26.8795V27.121C13 27.8815 13.619 28.5 14.379 28.5H15.6205C16.381 28.5 17 27.8815 17 27.121V26.8795C17 26.119 16.381 25.5 15.621 25.5ZM16 27.121C16 27.33 15.83 27.5 15.621 27.5H14.3795C14.17 27.5 14 27.33 14 27.121V26.8795C14 26.67 14.1699 26.5 14.3795 26.5H15.6205C15.83 26.5 16 26.6699 16 26.8795V27.121Z"/>
<path d="M21.693 0H8.3075C7.311 0 6.5 0.810996 6.5 1.8075V28.1925C6.5 29.189 7.311 30 8.3075 30H21.6925C22.689 30 23.5 29.189 23.5 28.193V1.8075C23.5 0.810996 22.689 0 21.693 0ZM22.5 28.1925C22.5 28.6375 22.138 29 21.693 29H8.3075C7.86201 29 7.50002 28.6375 7.50002 28.193V1.8075C7.50002 1.36248 7.86201 1.00002 8.3075 1.00002H21.6925C22.138 1.00002 22.5 1.36254 22.5 1.8075V28.1925H22.5Z"/>
<path d="M22.9999 3H6.99998C6.724 3 6.5 3.224 6.5 3.49998V24.5C6.5 24.776 6.724 25 6.99998 25H23C23.276 25 23.5 24.776 23.5 24.5V3.49998C23.5 3.224 23.276 3 22.9999 3ZM22.5 24H7.49996V4.00002H22.5V24Z"/>
</symbol><symbol viewBox="0 0 30 30" id="pin" xmlns="http://www.w3.org/2000/svg">
<g clip-path="url(#gclip0_1902_144)">
<path d="M21.342 11.9302C19.1466 11.9302 17.3652 10.1488 17.3652 7.95336C17.3652 5.75792 19.1466 3.97656 21.342 3.97656C23.5375 3.97656 25.3188 5.75792 25.3188 7.95336C25.3188 10.1488 23.5375 11.9302 21.342 11.9302ZM21.342 5.30208C19.884 5.30208 18.6908 6.49532 18.6908 7.95336C18.6908 9.41141 19.884 10.6046 21.342 10.6046C22.8003 10.6046 23.9933 9.41141 23.9933 7.95336C23.9933 6.49532 22.8003 5.30208 21.342 5.30208Z"/>
<path d="M21.3423 18.4425L15.9239 13.778C14.3001 12.2535 13.3887 10.1408 13.3887 7.9536C13.3887 3.57072 16.9596 0 21.3423 0C25.7252 0 29.2959 3.57072 29.2959 7.9536C29.2959 10.1408 28.3844 12.2535 26.7856 13.753L21.3423 18.4425ZM21.3423 1.32552C17.6885 1.32552 14.7142 4.29987 14.7142 7.9536C14.7142 9.80122 15.4598 11.5243 16.8104 12.7838L21.3423 16.6861L25.8989 12.7671C27.2247 11.5161 27.9704 9.80122 27.9704 7.9536C27.9704 4.29987 24.996 1.32552 21.3423 1.32552Z"/>
<path d="M4.20836 30.0002L3.27217 29.064L4.64745 27.6887C5.15304 27.1832 5.43461 26.504 5.43461 25.7831C5.43461 25.1285 5.19431 24.4989 4.77172 24.01L2.55977 21.4832C1.4163 20.1825 0.794922 18.5254 0.794922 16.8021C0.794922 14.3581 2.02942 12.1129 4.09234 10.8038L8.86455 7.77148L9.57719 8.88996L4.80498 11.9223C3.12314 12.9828 2.12068 14.8054 2.12068 16.8021C2.12068 18.2023 2.62604 19.5611 3.55397 20.6133L5.76592 23.1401C6.40405 23.8692 6.76013 24.8137 6.76013 25.7831C6.76013 26.8601 6.34604 27.8625 5.58364 28.6249L4.20836 30.0002Z"/>
<path d="M25.3191 29.8257H23.9936V29.3204C23.9936 25.94 21.8477 22.9161 18.6498 21.8059L11.5661 19.3451C9.87599 18.757 8.74902 17.1662 8.74902 15.3851C8.74902 14.2666 9.18811 13.2061 9.97527 12.419L11.3093 11.085L12.2455 12.0212L10.9115 13.3552C10.3731 13.8938 10.0748 14.6227 10.0748 15.3851C10.0748 16.6028 10.8534 17.6965 12.0052 18.0941L19.0889 20.5631C22.8171 21.8556 25.3191 25.3766 25.3191 29.3286V29.8257Z"/>
</g>
<defs>
<clipPath id="gclip0_1902_144">
<rect width="30" height="30"/>
</clipPath>
</defs>
</symbol><symbol viewBox="0 0 18 16" id="polygon" xmlns="http://www.w3.org/2000/svg">
<path d="M9 15.9043L0.339745 0.904297L17.6603 0.904297L9 15.9043Z"/>
</symbol><symbol viewBox="0 0 24 24" id="reply" xmlns="http://www.w3.org/2000/svg">
<path d="M14.103 7.51944C14.0699 7.50485 14.0336 7.49883 13.9975 7.50192C13.9615 7.50501 13.9267 7.51712 13.8966 7.53714C13.8664 7.55715 13.8417 7.58442 13.8249 7.61645C13.808 7.64848 13.7994 7.68424 13.8 7.72044V9.44994C13.8 9.64885 13.721 9.83962 13.5803 9.98027C13.4397 10.1209 13.2489 10.1999 13.05 10.1999C12.0495 10.1999 10.0305 10.2074 8.1 11.4329C6.624 12.3689 5.115 14.0729 4.2075 17.2469C5.7375 15.7724 7.485 14.9729 9.015 14.5484C9.95543 14.2887 10.9219 14.1347 11.8965 14.0894C12.2954 14.0719 12.695 14.0759 13.0935 14.1014H13.113L13.1205 14.1029H13.122L13.05 14.8499L13.125 14.1029C13.3101 14.1215 13.4817 14.2083 13.6065 14.3463C13.7312 14.4844 13.8002 14.6639 13.8 14.8499V16.5794C13.8 16.7414 13.965 16.8434 14.103 16.7804L20.079 12.3809C20.0993 12.3659 20.1203 12.3519 20.142 12.3389C20.1746 12.3193 20.2016 12.2916 20.2203 12.2585C20.2391 12.2254 20.2489 12.188 20.2489 12.1499C20.2489 12.1119 20.2391 12.0745 20.2203 12.0414C20.2016 12.0082 20.1746 11.9805 20.142 11.9609C20.1203 11.948 20.0993 11.934 20.079 11.9189L14.103 7.51944ZM12.3 15.5789C12.198 15.5789 12.0855 15.5834 11.9655 15.5879C11.3145 15.6179 10.4145 15.7169 9.4155 15.9944C7.4265 16.5464 5.0715 17.7974 3.5055 20.6144C3.42082 20.7665 3.28588 20.8844 3.12382 20.9479C2.96176 21.0113 2.78266 21.0165 2.61723 20.9624C2.45179 20.9083 2.31031 20.7984 2.21704 20.6514C2.12378 20.5045 2.08452 20.3297 2.106 20.1569C2.802 14.5919 4.935 11.6639 7.296 10.1669C9.1635 8.98194 11.0865 8.75394 12.3 8.71044V7.72044C12.2999 7.41154 12.3831 7.10833 12.5409 6.84281C12.6988 6.57729 12.9254 6.35929 13.1968 6.21183C13.4682 6.06436 13.7744 5.9929 14.0831 6.00497C14.3917 6.01705 14.6914 6.11222 14.9505 6.28044L20.9415 10.6904C21.1892 10.845 21.3934 11.0601 21.5351 11.3155C21.6767 11.5708 21.751 11.858 21.751 12.1499C21.751 12.4419 21.6767 12.7291 21.5351 12.9844C21.3934 13.2397 21.1892 13.4548 20.9415 13.6094L14.9505 18.0194C14.6914 18.1877 14.3917 18.2828 14.0831 18.2949C13.7744 18.307 13.4682 18.2355 13.1968 18.0881C12.9254 17.9406 12.6988 17.7226 12.5409 17.4571C12.3831 17.1915 12.2999 16.8883 12.3 16.5794V15.5789Z"/>
</symbol><symbol viewBox="0 0 30 30" id="telegram" xmlns="http://www.w3.org/2000/svg">
<g clip-path="url(#jclip0_1902_107)">
<path d="M29.4125 2.45794C28.9299 2.01574 28.244 1.86837 27.6222 2.07328L1.24402 10.7686C0.52513 11.0056 0.0376305 11.6473 0.00206411 12.4034C-0.0334437 13.1594 0.391654 13.8441 1.08505 14.1476L7.60859 17.0018C7.6404 17.1494 9.51312 25.8351 9.57681 26.1304C9.65855 26.5096 9.85103 26.8474 10.2588 26.9513C10.6712 27.0564 10.9626 26.8309 11.2703 26.6006C11.4416 26.4724 16.1114 22.9757 16.1114 22.9757L21.7709 27.6068C22.1005 27.8767 22.5034 28.0175 22.9142 28.0175C23.1098 28.0174 23.3073 27.9855 23.4993 27.9204C24.095 27.7184 24.5366 27.2323 24.6805 26.62L29.952 4.20779C30.1018 3.57058 29.8952 2.90015 29.4125 2.45794ZM11.692 18.6373C11.6888 18.6449 11.6857 18.6535 11.6827 18.6639L10.5914 22.4764L9.37361 16.8283L17.7476 12.1757L11.8929 18.2974C11.8007 18.3939 11.7328 18.5105 11.692 18.6373ZM12.0384 23.8243L12.534 22.0926L13.0081 20.4362L14.7068 21.8263L12.0384 23.8243ZM28.2368 3.80431L22.9654 26.2165C22.9628 26.2277 22.9593 26.243 22.9335 26.2517C22.9079 26.2604 22.8955 26.2505 22.8867 26.2433L16.6939 21.1756C16.6937 21.1755 16.6936 21.1753 16.6934 21.1752L13.8242 18.8272L23.0423 9.18867C23.3433 8.87384 23.3691 8.38628 23.1029 8.04146C22.8366 7.69658 22.3584 7.59808 21.9777 7.80972L8.32823 15.3934L1.79134 12.5333C1.77142 12.5246 1.76046 12.5198 1.76204 12.4861C1.76363 12.4525 1.77499 12.4487 1.79562 12.4419L28.1738 3.7466C28.1866 3.74244 28.201 3.73763 28.2222 3.75697C28.2434 3.77642 28.2399 3.79119 28.2368 3.80431Z"/>
</g>
<defs>
<clipPath id="jclip0_1902_107">
<rect width="30" height="30"/>
</clipPath>
</defs>
</symbol><symbol viewBox="0 0 25 24" id="upload" xmlns="http://www.w3.org/2000/svg">
<g clip-path="url(#kclip0_2505_11)">
<path d="M1.25 14.8502C1.44891 14.8502 1.63968 14.9292 1.78033 15.0699C1.92098 15.2105 2 15.4013 2 15.6002V19.3502C2 19.748 2.15804 20.1296 2.43934 20.4109C2.72064 20.6922 3.10218 20.8502 3.5 20.8502H21.5C21.8978 20.8502 22.2794 20.6922 22.5607 20.4109C22.842 20.1296 23 19.748 23 19.3502V15.6002C23 15.4013 23.079 15.2105 23.2197 15.0699C23.3603 14.9292 23.5511 14.8502 23.75 14.8502C23.9489 14.8502 24.1397 14.9292 24.2803 15.0699C24.421 15.2105 24.5 15.4013 24.5 15.6002V19.3502C24.5 20.1459 24.1839 20.9089 23.6213 21.4715C23.0587 22.0342 22.2956 22.3502 21.5 22.3502H3.5C2.70435 22.3502 1.94129 22.0342 1.37868 21.4715C0.816071 20.9089 0.5 20.1459 0.5 19.3502V15.6002C0.5 15.4013 0.579018 15.2105 0.71967 15.0699C0.860322 14.9292 1.05109 14.8502 1.25 14.8502Z"/>
<path d="M11.969 1.719C12.0387 1.64915 12.1214 1.59374 12.2126 1.55593C12.3037 1.51812 12.4014 1.49866 12.5 1.49866C12.5987 1.49866 12.6963 1.51812 12.7875 1.55593C12.8786 1.59374 12.9613 1.64915 13.031 1.719L17.531 6.219C17.6718 6.35983 17.751 6.55083 17.751 6.75C17.751 6.94916 17.6718 7.14017 17.531 7.281C17.3902 7.42183 17.1992 7.50095 17 7.50095C16.8009 7.50095 16.6098 7.42183 16.469 7.281L13.25 4.0605V17.25C13.25 17.4489 13.171 17.6397 13.0303 17.7803C12.8897 17.921 12.6989 18 12.5 18C12.3011 18 12.1103 17.921 11.9697 17.7803C11.829 17.6397 11.75 17.4489 11.75 17.25V4.0605L8.53102 7.281C8.46129 7.35073 8.3785 7.40604 8.28739 7.44378C8.19628 7.48152 8.09863 7.50095 8.00002 7.50095C7.9014 7.50095 7.80375 7.48152 7.71264 7.44378C7.62153 7.40604 7.53875 7.35073 7.46902 7.281C7.39928 7.21127 7.34397 7.12848 7.30623 7.03737C7.26849 6.94626 7.24907 6.84861 7.24907 6.75C7.24907 6.65138 7.26849 6.55373 7.30623 6.46262C7.34397 6.37151 7.39928 6.28873 7.46902 6.219L11.969 1.719Z"/>
</g>
<defs>
<clipPath id="kclip0_2505_11">
<rect width="24" height="24" transform="translate(0.5)"/>
</clipPath>
</defs>
</symbol><symbol viewBox="0 0 30 30" id="vk" xmlns="http://www.w3.org/2000/svg">
<g clip-path="url(#lclip0_1902_111)">
<path d="M15.1813 24.375C19.5212 24.375 17.9738 21.6275 18.3088 20.8375C18.3038 20.2475 18.2987 19.68 18.3188 19.335C18.5938 19.4125 19.2425 19.7412 20.5825 21.0437C22.6512 23.1312 23.18 24.375 24.8512 24.375H27.9275C28.9025 24.375 29.41 23.9713 29.6638 23.6325C29.9088 23.305 30.1488 22.73 29.8862 21.835C29.2 19.68 25.1975 15.9587 24.9487 15.5662C24.9862 15.4937 25.0462 15.3975 25.0775 15.3475H25.075C25.865 14.3038 28.88 9.78625 29.3237 7.97875C29.325 7.97625 29.3263 7.9725 29.3263 7.96875C29.5662 7.14375 29.3463 6.60875 29.1187 6.30625C28.7763 5.85375 28.2313 5.625 27.495 5.625H24.4188C23.3888 5.625 22.6075 6.14375 22.2125 7.09C21.5513 8.77125 19.6938 12.2288 18.3013 13.4525C18.2587 11.7188 18.2875 10.395 18.31 9.41125C18.355 7.4925 18.5 5.625 16.5087 5.625H11.6737C10.4262 5.625 9.2325 6.9875 10.525 8.605C11.655 10.0225 10.9312 10.8125 11.175 14.745C10.225 13.7262 8.535 10.975 7.34 7.45875C7.005 6.5075 6.4975 5.62625 5.06875 5.62625H1.9925C0.745 5.62625 0 6.30625 0 7.445C0 10.0025 5.66125 24.375 15.1813 24.375ZM5.06875 7.50125C5.34 7.50125 5.3675 7.50125 5.56875 8.0725C6.7925 11.6762 9.5375 17.0088 11.5425 17.0088C13.0487 17.0088 13.0487 15.465 13.0487 14.8837L13.0475 10.2562C12.965 8.725 12.4075 7.9625 12.0413 7.5L16.4263 7.505C16.4287 7.52625 16.4013 12.6237 16.4387 13.8587C16.4387 15.6125 17.8312 16.6175 20.005 14.4175C22.2987 11.8288 23.885 7.95875 23.9487 7.80125C24.0425 7.57625 24.1238 7.5 24.4188 7.5H27.495H27.5075C27.5063 7.50375 27.5063 7.5075 27.505 7.51125C27.2237 8.82375 24.4475 13.0063 23.5188 14.305C23.5037 14.325 23.49 14.3463 23.4762 14.3675C23.0675 15.035 22.735 15.7725 23.5325 16.81C23.605 16.8975 23.795 17.1025 24.07 17.3875C24.925 18.27 27.8575 21.2875 28.1175 22.4875C27.945 22.515 27.7575 22.495 24.8512 22.5012C24.2325 22.5012 23.7487 21.5763 21.9025 19.7137C20.2425 18.0988 19.165 17.4388 18.1838 17.4388C16.2787 17.4388 16.4175 18.985 16.435 20.855C16.4412 22.8825 16.4288 22.2413 16.4425 22.3688C16.3313 22.4125 16.0125 22.5 15.1813 22.5C7.25 22.5 2.085 9.91125 1.88625 7.505C1.955 7.49875 2.90125 7.5025 5.06875 7.50125Z"/>
</g>
<defs>
<clipPath id="lclip0_1902_111">
<rect width="30" height="30"/>
</clipPath>
</defs>
</symbol><symbol viewBox="0 0 30 30" id="whatsapp" xmlns="http://www.w3.org/2000/svg">
<g clip-path="url(#mclip0_1902_104)">
<path d="M25.7389 4.26109C22.991 1.51314 19.3382 0 15.4518 0C15.4516 0 15.4507 0 15.4504 0C13.5283 0.000228882 11.6551 0.372391 9.88335 1.10641C8.11135 1.84044 6.52382 2.90176 5.16449 4.26109C2.41677 7.00882 0.903629 10.6622 0.903629 14.5482C0.903629 16.8656 1.46279 19.1686 2.52228 21.2206L0.0769077 28.2065C-0.0954403 28.6993 0.0265537 29.2348 0.395969 29.604C0.654377 29.8627 0.994495 30 1.34423 30C1.49414 30 1.64566 29.9748 1.79352 29.9231L8.77945 27.478C10.8314 28.5374 13.1344 29.0966 15.4518 29.0966C19.3378 29.0966 22.991 27.5832 25.7389 24.8355C28.4866 22.0878 30 18.4344 30 14.5484C30 10.6622 28.4869 7.00882 25.7389 4.26109ZM24.4947 23.5913C22.0793 26.0069 18.8677 27.337 15.4518 27.337C13.3621 27.337 11.2862 26.8201 9.44825 25.8419C9.11499 25.6647 8.72109 25.6343 8.36747 25.7581L2.02057 27.9794L4.2421 21.6325C4.36592 21.2785 4.33525 20.8846 4.1581 20.5515C3.18009 18.7141 2.66304 16.6381 2.66304 14.5482C2.66304 11.1324 3.99331 7.92068 6.4087 5.50529C8.82386 3.09013 12.0351 1.75987 15.4507 1.75941H15.4518C18.8679 1.75941 22.0793 3.08968 24.4947 5.50529C26.9103 7.92068 28.2406 11.1321 28.2406 14.5482C28.2406 17.9642 26.9103 21.1759 24.4947 23.5913Z"/>
<path d="M20.8586 15.8477C20.1894 15.1784 19.1003 15.1784 18.4311 15.8477L17.6991 16.5796C15.8816 15.5893 14.4108 14.1185 13.4202 12.3009L14.1521 11.569C14.8216 10.8997 14.8216 9.81068 14.1521 9.14143L12.1796 7.16893C11.5104 6.49968 10.4214 6.49968 9.75211 7.16893L8.1742 8.74684C7.27035 9.6507 7.22526 11.2046 8.04717 13.1224C8.76083 14.7875 10.0668 16.6176 11.7246 18.2754C13.3824 19.9332 15.2125 21.2392 16.8777 21.9529C17.7888 22.3433 18.6176 22.5381 19.3338 22.5381C20.125 22.5381 20.7787 22.3003 21.2532 21.8258L22.8311 20.2477V20.2479C23.1554 19.9236 23.334 19.4926 23.334 19.0342C23.334 18.5755 23.1554 18.1445 22.8311 17.8204L20.8586 15.8477ZM20.009 20.5816C19.751 20.8396 18.9577 20.93 17.5709 20.3358C16.1066 19.7082 14.4721 18.5345 12.9688 17.0312C11.4655 15.5279 10.292 13.8937 9.66445 12.4293C9.07004 11.0425 9.16045 10.249 9.4184 9.99104L10.9661 8.44334L12.8777 10.3552L11.9615 11.2716C11.5472 11.6859 11.4472 12.3142 11.7129 12.8351C12.9175 15.1972 14.8028 17.0825 17.1649 18.2871C17.6861 18.5528 18.3144 18.453 18.7286 18.0385L19.6448 17.1223L21.5567 19.0342L20.009 20.5816Z"/>
</g>
<defs>
<clipPath id="mclip0_1902_104">
<rect width="30" height="30"/>
</clipPath>
</defs>
</symbol><symbol viewBox="0 0 30 30" id="youtube" xmlns="http://www.w3.org/2000/svg">
<g clip-path="url(#nclip0_1902_101)">
<path d="M19.6179 13.6515L12.9902 10.0251C12.6091 9.81658 12.1587 9.82436 11.7852 10.0457C11.4114 10.2672 11.1885 10.6586 11.1885 11.093V18.2836C11.1885 18.7159 11.41 19.1066 11.7813 19.3284C11.9751 19.4442 12.1901 19.5024 12.4054 19.5024C12.6027 19.5024 12.8005 19.4536 12.9824 19.3556L19.6104 15.7917C20.0038 15.58 20.2494 15.171 20.2512 14.724C20.2528 14.277 20.0102 13.8662 19.6179 13.6515ZM12.9465 17.379V12.0049L17.9 14.7153L12.9465 17.379Z"/>
<path d="M29.7792 8.99572L29.7779 8.98199C29.7525 8.74052 29.4995 6.5927 28.4554 5.50025C27.2485 4.21531 25.8803 4.05922 25.2222 3.98437C25.1677 3.97819 25.1178 3.97247 25.0732 3.96652L25.0208 3.96103C21.0548 3.67264 15.0652 3.63327 15.0052 3.63304L14.9999 3.63281L14.9947 3.63304C14.9347 3.63327 8.94512 3.67264 4.94337 3.96103L4.8905 3.96652C4.84793 3.97224 4.80101 3.97751 4.74997 3.98346C4.09949 4.05853 2.74588 4.21486 1.53556 5.54626C0.541075 6.62703 0.2536 8.72885 0.224074 8.96505L0.220641 8.99572C0.211715 9.0962 0 11.4882 0 13.8897V16.1345C0 18.5359 0.211715 20.928 0.220641 21.0287L0.222243 21.0438C0.247649 21.2814 0.500334 23.3898 1.53968 24.4827C2.67447 25.7246 4.10933 25.889 4.88111 25.9773C5.00311 25.9913 5.10816 26.0032 5.1798 26.0158L5.24916 26.0254C7.53911 26.2433 14.7189 26.3506 15.0233 26.355L15.0324 26.3552L15.0416 26.355C15.1016 26.3547 21.0909 26.3154 25.057 26.027L25.1094 26.0215C25.1595 26.0148 25.2158 26.0089 25.2776 26.0025C25.9244 25.9338 27.2707 25.7912 28.4643 24.4779C29.4588 23.3969 29.7465 21.2951 29.7758 21.0591L29.7792 21.0284C29.7882 20.9277 30.0001 18.5359 30.0001 16.1345V13.8897C29.9999 11.4882 29.7882 9.09643 29.7792 8.99572ZM28.2418 16.1345C28.2418 18.3572 28.0478 20.6462 28.0294 20.8563C27.9548 21.4352 27.6516 22.765 27.167 23.2916C26.42 24.1135 25.6525 24.195 25.0922 24.2543C25.0245 24.2614 24.9618 24.2683 24.905 24.2754C21.0689 24.5528 15.3055 24.5953 15.04 24.5969C14.7422 24.5926 7.66751 24.4843 5.44737 24.2781C5.33361 24.2596 5.2107 24.2454 5.08116 24.2307C4.42404 24.1554 3.52454 24.0524 2.83286 23.2916L2.81661 23.2742C2.34054 22.7782 2.04597 21.5347 1.97112 20.8632C1.95716 20.7044 1.75803 18.3883 1.75803 16.1345V13.8897C1.75803 11.6695 1.95167 9.38299 1.97044 9.16853C2.05947 8.48669 2.36846 7.23746 2.83286 6.73255C3.60281 5.88569 4.41466 5.79185 4.95161 5.72982C5.00288 5.72387 5.05072 5.71838 5.09489 5.71265C8.98678 5.43388 14.7917 5.39245 14.9999 5.39085C15.2082 5.39222 21.011 5.43388 24.8684 5.71265C24.9157 5.7186 24.9675 5.72456 25.0231 5.73096C25.5754 5.79391 26.4101 5.88912 27.1762 6.70623L27.1833 6.71378C27.6593 7.20976 27.9539 8.47502 28.0288 9.16006C28.042 9.30997 28.2418 11.6311 28.2418 13.8897V16.1345Z"/>
</g>
<defs>
<clipPath id="nclip0_1902_101">
<rect width="30" height="29.9999"/>
</clipPath>
</defs>
</symbol></svg>