<svg aria-hidden="true" xmlns="http://www.w3.org/2000/svg" xmlns:xlink="http://www.w3.org/1999/xlink"><symbol viewBox="0 0 17 16" id="arrow" xmlns="http://www.w3.org/2000/svg">
<path d="M8.83329 9.32145L4.54857 4.9107C4.23243 4.58527 3.71987 4.58527 3.40373 4.9107C3.08759 5.23614 3.08759 5.76378 3.40373 6.08921L8.26087 11.0892C8.57701 11.4147 9.08957 11.4147 9.40571 11.0892L14.2629 6.08922C14.579 5.76378 14.579 5.23614 14.2629 4.9107C13.9467 4.58527 13.4342 4.58527 13.118 4.9107L8.83329 9.32145Z" fill-opacity="0.4"/>
</symbol><symbol viewBox="0 0 18 16" id="polygon" xmlns="http://www.w3.org/2000/svg">
<path d="M9 15.9043L0.339745 0.904297L17.6603 0.904297L9 15.9043Z"/>
</symbol><symbol viewBox="0 0 24 24" id="reply" xmlns="http://www.w3.org/2000/svg">
<path d="M14.103 7.51944C14.0699 7.50485 14.0336 7.49883 13.9975 7.50192C13.9615 7.50501 13.9267 7.51712 13.8966 7.53714C13.8664 7.55715 13.8417 7.58442 13.8249 7.61645C13.808 7.64848 13.7994 7.68424 13.8 7.72044V9.44994C13.8 9.64885 13.721 9.83962 13.5803 9.98027C13.4397 10.1209 13.2489 10.1999 13.05 10.1999C12.0495 10.1999 10.0305 10.2074 8.1 11.4329C6.624 12.3689 5.115 14.0729 4.2075 17.2469C5.7375 15.7724 7.485 14.9729 9.015 14.5484C9.95543 14.2887 10.9219 14.1347 11.8965 14.0894C12.2954 14.0719 12.695 14.0759 13.0935 14.1014H13.113L13.1205 14.1029H13.122L13.05 14.8499L13.125 14.1029C13.3101 14.1215 13.4817 14.2083 13.6065 14.3463C13.7312 14.4844 13.8002 14.6639 13.8 14.8499V16.5794C13.8 16.7414 13.965 16.8434 14.103 16.7804L20.079 12.3809C20.0993 12.3659 20.1203 12.3519 20.142 12.3389C20.1746 12.3193 20.2016 12.2916 20.2203 12.2585C20.2391 12.2254 20.2489 12.188 20.2489 12.1499C20.2489 12.1119 20.2391 12.0745 20.2203 12.0414C20.2016 12.0082 20.1746 11.9805 20.142 11.9609C20.1203 11.948 20.0993 11.934 20.079 11.9189L14.103 7.51944ZM12.3 15.5789C12.198 15.5789 12.0855 15.5834 11.9655 15.5879C11.3145 15.6179 10.4145 15.7169 9.4155 15.9944C7.4265 16.5464 5.0715 17.7974 3.5055 20.6144C3.42082 20.7665 3.28588 20.8844 3.12382 20.9479C2.96176 21.0113 2.78266 21.0165 2.61723 20.9624C2.45179 20.9083 2.31031 20.7984 2.21704 20.6514C2.12378 20.5045 2.08452 20.3297 2.106 20.1569C2.802 14.5919 4.935 11.6639 7.296 10.1669C9.1635 8.98194 11.0865 8.75394 12.3 8.71044V7.72044C12.2999 7.41154 12.3831 7.10833 12.5409 6.84281C12.6988 6.57729 12.9254 6.35929 13.1968 6.21183C13.4682 6.06436 13.7744 5.9929 14.0831 6.00497C14.3917 6.01705 14.6914 6.11222 14.9505 6.28044L20.9415 10.6904C21.1892 10.845 21.3934 11.0601 21.5351 11.3155C21.6767 11.5708 21.751 11.858 21.751 12.1499C21.751 12.4419 21.6767 12.7291 21.5351 12.9844C21.3934 13.2397 21.1892 13.4548 20.9415 13.6094L14.9505 18.0194C14.6914 18.1877 14.3917 18.2828 14.0831 18.2949C13.7744 18.307 13.4682 18.2355 13.1968 18.0881C12.9254 17.9406 12.6988 17.7226 12.5409 17.4571C12.3831 17.1915 12.2999 16.8883 12.3 16.5794V15.5789Z"/>
</symbol><symbol viewBox="0 0 25 24" id="upload" xmlns="http://www.w3.org/2000/svg">
<g clip-path="url(#dclip0_2505_11)">
<path d="M1.25 14.8502C1.44891 14.8502 1.63968 14.9292 1.78033 15.0699C1.92098 15.2105 2 15.4013 2 15.6002V19.3502C2 19.748 2.15804 20.1296 2.43934 20.4109C2.72064 20.6922 3.10218 20.8502 3.5 20.8502H21.5C21.8978 20.8502 22.2794 20.6922 22.5607 20.4109C22.842 20.1296 23 19.748 23 19.3502V15.6002C23 15.4013 23.079 15.2105 23.2197 15.0699C23.3603 14.9292 23.5511 14.8502 23.75 14.8502C23.9489 14.8502 24.1397 14.9292 24.2803 15.0699C24.421 15.2105 24.5 15.4013 24.5 15.6002V19.3502C24.5 20.1459 24.1839 20.9089 23.6213 21.4715C23.0587 22.0342 22.2956 22.3502 21.5 22.3502H3.5C2.70435 22.3502 1.94129 22.0342 1.37868 21.4715C0.816071 20.9089 0.5 20.1459 0.5 19.3502V15.6002C0.5 15.4013 0.579018 15.2105 0.71967 15.0699C0.860322 14.9292 1.05109 14.8502 1.25 14.8502Z"/>
<path d="M11.969 1.719C12.0387 1.64915 12.1214 1.59374 12.2126 1.55593C12.3037 1.51812 12.4014 1.49866 12.5 1.49866C12.5987 1.49866 12.6963 1.51812 12.7875 1.55593C12.8786 1.59374 12.9613 1.64915 13.031 1.719L17.531 6.219C17.6718 6.35983 17.751 6.55083 17.751 6.75C17.751 6.94916 17.6718 7.14017 17.531 7.281C17.3902 7.42183 17.1992 7.50095 17 7.50095C16.8009 7.50095 16.6098 7.42183 16.469 7.281L13.25 4.0605V17.25C13.25 17.4489 13.171 17.6397 13.0303 17.7803C12.8897 17.921 12.6989 18 12.5 18C12.3011 18 12.1103 17.921 11.9697 17.7803C11.829 17.6397 11.75 17.4489 11.75 17.25V4.0605L8.53102 7.281C8.46129 7.35073 8.3785 7.40604 8.28739 7.44378C8.19628 7.48152 8.09863 7.50095 8.00002 7.50095C7.9014 7.50095 7.80375 7.48152 7.71264 7.44378C7.62153 7.40604 7.53875 7.35073 7.46902 7.281C7.39928 7.21127 7.34397 7.12848 7.30623 7.03737C7.26849 6.94626 7.24907 6.84861 7.24907 6.75C7.24907 6.65138 7.26849 6.55373 7.30623 6.46262C7.34397 6.37151 7.39928 6.28873 7.46902 6.219L11.969 1.719Z"/>
</g>
<defs>
<clipPath id="dclip0_2505_11">
<rect width="24" height="24" transform="translate(0.5)"/>
</clipPath>
</defs>
</symbol></svg>