<svg width="12" height="18" viewBox="0 0 12 18" fill="none" xmlns="http://www.w3.org/2000/svg">
<g opacity="0.75">
<path opacity="0.3" fill-rule="evenodd" clip-rule="evenodd" d="M9.22266 1.9082L11.9647 3.54579V13.0033L9.22266 14.8056V1.9082Z" fill="#FC9702"/>
</g>
<g opacity="0.48">
<path opacity="0.45" fill-rule="evenodd" clip-rule="evenodd" d="M0.428711 5.23977L3.20461 3.78418V16.109L0.428711 14.4578V5.23977Z" fill="#FC9702"/>
</g>
<path fill-rule="evenodd" clip-rule="evenodd" d="M6.18489 10.1503L3.32449 11.7587L0.428711 10.116V3.71677L6.18489 0.5L9.223 2.15771V5.40875L6.18489 3.71677L3.32449 5.35943V8.54192L6.18489 10.1503Z" fill="url(#paint0_linear_1902_114)"/>
<path fill-rule="evenodd" clip-rule="evenodd" d="M6.18489 10.1503L3.32449 11.7587L0.428711 10.116V3.71677L6.18489 0.5L9.223 2.15771V5.40875L6.18489 3.71677L3.32449 5.35943V8.54192L6.18489 10.1503Z" fill="black" fill-opacity="0.2"/>
<path fill-rule="evenodd" clip-rule="evenodd" d="M6.24529 7.82452L9.10513 6.12891L12.0003 7.82452V14.5009L6.24529 17.8567L3.20605 16.1102V12.7543L6.28065 14.5362L9.10513 12.8052V9.48476L6.24529 7.82452Z" fill="url(#paint1_linear_1902_114)"/>
<path fill-rule="evenodd" clip-rule="evenodd" d="M6.24529 7.82452L9.10513 6.12891L12.0003 7.82452V14.5009L6.24529 17.8567L3.20605 16.1102V12.7543L6.28065 14.5362L9.10513 12.8052V9.48476L6.24529 7.82452Z" fill="black" fill-opacity="0.2"/>
<defs>
<linearGradient id="paint0_linear_1902_114" x1="0.428711" y1="11.7587" x2="9.223" y2="11.7587" gradientUnits="userSpaceOnUse">
<stop stop-color="#FF6B39"/>
<stop offset="0.35" stop-color="#FF8124"/>
<stop offset="0.78" stop-color="#FC9700"/>
<stop offset="1" stop-color="#FFAA00"/>
</linearGradient>
<linearGradient id="paint1_linear_1902_114" x1="3.20605" y1="17.8567" x2="12.0003" y2="17.8567" gradientUnits="userSpaceOnUse">
<stop stop-color="#FF6A37"/>
<stop offset="0.295069" stop-color="#FC7614"/>
<stop offset="0.78" stop-color="#FC9700"/>
<stop offset="1" stop-color="#FFAA00"/>
</linearGradient>
</defs>
</svg>
