<svg width="502" height="179" viewBox="0 0 502 179" fill="none" xmlns="http://www.w3.org/2000/svg">
<path d="M1.49951 79H0.499512V80H1.49951V79ZM1.49951 1.99999V0.999995H0.499512V1.99999H1.49951ZM72.1195 8.82L71.4124 9.52711L71.4186 9.53331L71.4249 9.5394L72.1195 8.82ZM76.9595 15.97L77.8863 15.5943V15.5943L76.9595 15.97ZM76.7395 33.68L77.6482 34.0975L77.6523 34.0884L76.7395 33.68ZM72.0095 40.39L71.3312 39.6552L70.5352 40.39L71.3312 41.1248L72.0095 40.39ZM76.5195 47.21L75.5894 47.5772L75.5935 47.5877L75.5979 47.5981L76.5195 47.21ZM76.6295 64.92L75.6994 64.5528L75.6967 64.5595L75.6942 64.5661L76.6295 64.92ZM72.0095 72.18L72.7166 72.8871L72.7228 72.8809L72.7289 72.8746L72.0095 72.18ZM64.4195 77.13L64.0365 76.2062L64.0284 76.2097L64.4195 77.13ZM27.3495 30.82H26.3495V31.82H27.3495V30.82ZM51.3295 29.5L52.0078 30.2348L52.0225 30.2212L52.0366 30.2071L51.3295 29.5ZM51.3295 22.68L50.6224 23.3871L50.6365 23.4012L50.6512 23.4148L51.3295 22.68ZM27.3495 21.25V20.25H26.3495V21.25H27.3495ZM27.3495 59.75H26.3495V60.75H27.3495V59.75ZM51.3295 58.32L52.0366 59.0271L51.3295 58.32ZM51.3295 51.5L50.6224 52.2071L50.6365 52.2212L50.6512 52.2348L51.3295 51.5ZM27.3495 50.07V49.07H26.3495V50.07H27.3495ZM2.49951 79V1.99999H0.499512V79H2.49951ZM1.49951 2.99999H54.4095V0.999995H1.49951V2.99999ZM54.4095 2.99999C58.0375 2.99999 61.278 3.60436 64.1465 4.79374L64.9125 2.94625C61.7677 1.6423 58.2615 0.999995 54.4095 0.999995V2.99999ZM64.1465 4.79374C67.0466 5.99622 69.4624 7.57712 71.4124 9.52711L72.8266 8.11289C70.6699 5.95621 68.0258 4.23711 64.9125 2.94625L64.1465 4.79374ZM71.4249 9.5394C73.452 11.4966 74.9858 13.7632 76.0328 16.3457L77.8863 15.5943C76.7332 12.7501 75.0403 10.25 72.8141 8.1006L71.4249 9.5394ZM76.0328 16.3457C77.0831 18.9364 77.6095 21.6686 77.6095 24.55H79.6095C79.6095 21.4181 79.036 18.4302 77.8863 15.5943L76.0328 16.3457ZM77.6095 24.55C77.6095 27.7208 77.0114 30.6236 75.8267 33.2716L77.6523 34.0884C78.961 31.1631 79.6095 27.9792 79.6095 24.55H77.6095ZM75.8308 33.2625C74.631 35.8738 73.1274 37.9972 71.3312 39.6552L72.6878 41.1248C74.705 39.2628 76.3547 36.9128 77.6482 34.0975L75.8308 33.2625ZM71.3312 41.1248C73.1115 42.7681 74.5361 44.9088 75.5894 47.5772L77.4497 46.8428C76.303 43.9378 74.7209 41.5319 72.6878 39.6552L71.3312 41.1248ZM75.5979 47.5981C76.7161 50.2538 77.2795 53.1275 77.2795 56.23H79.2795C79.2795 52.8791 78.6696 49.7395 77.4412 46.8219L75.5979 47.5981ZM77.2795 56.23C77.2795 59.1114 76.753 61.8835 75.6994 64.5528L77.5597 65.2872C78.706 62.3832 79.2795 59.3619 79.2795 56.23H77.2795ZM75.6942 64.5661C74.7166 67.1499 73.2509 69.4546 71.2901 71.4854L72.7289 72.8746C74.8748 70.6521 76.4891 68.1167 77.5648 65.2739L75.6942 64.5661ZM71.3024 71.4729C69.3524 73.4229 66.9366 75.0038 64.0365 76.2063L64.8025 78.0537C67.9158 76.7629 70.5599 75.0438 72.7166 72.8871L71.3024 71.4729ZM64.0284 76.2097C61.2383 77.3955 58.0381 78 54.4095 78V80C58.2609 80 61.7341 79.3579 64.8107 78.0503L64.0284 76.2097ZM54.4095 78H1.49951V80H54.4095V78ZM27.3495 31.82H47.9195V29.82H27.3495V31.82ZM47.9195 31.82C49.486 31.82 50.8662 31.2886 52.0078 30.2348L50.6512 28.7652C49.8862 29.4714 48.993 29.82 47.9195 29.82V31.82ZM52.0366 30.2071C53.1844 29.0593 53.7595 27.6286 53.7595 25.98H51.7595C51.7595 27.118 51.3813 28.034 50.6224 28.7929L52.0366 30.2071ZM53.7595 25.98C53.7595 24.3864 53.1702 23.0182 52.0078 21.9452L50.6512 23.4148C51.3955 24.1018 51.7595 24.9336 51.7595 25.98H53.7595ZM52.0366 21.9729C50.9002 20.8365 49.511 20.25 47.9195 20.25V22.25C48.968 22.25 49.8521 22.6168 50.6224 23.3871L52.0366 21.9729ZM47.9195 20.25H27.3495V22.25H47.9195V20.25ZM26.3495 21.25V30.82H28.3495V21.25H26.3495ZM27.3495 60.75H47.9195V58.75H27.3495V60.75ZM47.9195 60.75C49.511 60.75 50.9002 60.1635 52.0366 59.0271L50.6224 57.6129C49.8521 58.3832 48.968 58.75 47.9195 58.75V60.75ZM52.0366 59.0271C53.1844 57.8793 53.7595 56.4486 53.7595 54.8H51.7595C51.7595 55.938 51.3813 56.854 50.6224 57.6129L52.0366 59.0271ZM53.7595 54.8C53.7595 53.2064 53.1702 51.8382 52.0078 50.7652L50.6512 52.2348C51.3955 52.9218 51.7595 53.7536 51.7595 54.8H53.7595ZM52.0366 50.7929C50.9002 49.6565 49.511 49.07 47.9195 49.07V51.07C48.968 51.07 49.8521 51.4368 50.6224 52.2071L52.0366 50.7929ZM47.9195 49.07H27.3495V51.07H47.9195V49.07ZM26.3495 50.07V59.75H28.3495V50.07H26.3495ZM145.047 1.99999L145.996 1.68417L145.768 0.999995H145.047V1.99999ZM170.677 79V80H172.064L171.626 78.6842L170.677 79ZM143.727 79L142.777 79.3113L143.002 80H143.727V79ZM141.637 72.62L142.587 72.3087L142.362 71.62H141.637V72.62ZM112.817 72.62V71.62H112.092L111.867 72.3087L112.817 72.62ZM110.727 79V80H111.452L111.677 79.3113L110.727 79ZM83.7769 79L82.828 78.6842L82.3901 80H83.7769V79ZM109.407 1.99999V0.999995H108.686L108.458 1.68417L109.407 1.99999ZM119.307 53.37L118.357 53.0564L117.923 54.37H119.307V53.37ZM135.257 53.37V54.37H136.646L136.205 53.0525L135.257 53.37ZM127.227 29.39L128.175 29.0725L127.22 26.2212L126.277 29.0764L127.227 29.39ZM144.098 2.31582L169.728 79.3158L171.626 78.6842L145.996 1.68417L144.098 2.31582ZM170.677 78H143.727V80H170.677V78ZM144.677 78.6887L142.587 72.3087L140.687 72.9313L142.777 79.3113L144.677 78.6887ZM141.637 71.62H112.817V73.62H141.637V71.62ZM111.867 72.3087L109.777 78.6887L111.677 79.3113L113.767 72.9313L111.867 72.3087ZM110.727 78H83.7769V80H110.727V78ZM84.7257 79.3158L110.356 2.31582L108.458 1.68417L82.828 78.6842L84.7257 79.3158ZM109.407 2.99999H145.047V0.999995H109.407V2.99999ZM119.307 54.37H135.257V52.37H119.307V54.37ZM136.205 53.0525L128.175 29.0725L126.279 29.7075L134.309 53.6875L136.205 53.0525ZM126.277 29.0764L118.357 53.0564L120.256 53.6836L128.176 29.7036L126.277 29.0764ZM224.171 27.63H223.171V28.63H224.171V27.63ZM222.191 23.34L221.584 24.1344L221.609 24.1541L221.636 24.172L222.191 23.34ZM200.521 23.34L199.814 22.6329L199.8 22.647L199.786 22.6617L200.521 23.34ZM200.521 29.94L199.814 30.6471L199.828 30.6612L199.843 30.6748L200.521 29.94ZM235.061 33.24L234.659 34.1556L234.669 34.1598L234.678 34.1637L235.061 33.24ZM242.871 38.52L242.153 39.2154L242.164 39.2272L242.176 39.2386L242.871 38.52ZM248.151 46.33L247.227 46.713L247.231 46.7225L247.236 46.732L248.151 46.33ZM248.151 65.47L247.236 65.068L247.231 65.0775L247.227 65.087L248.151 65.47ZM242.871 73.39L242.164 72.6829L242.158 72.6887L242.153 72.6946L242.871 73.39ZM235.061 78.78L235.444 79.7037L235.454 79.6998L235.463 79.6956L235.061 78.78ZM189.851 78.78L189.449 79.6956L189.459 79.6998L189.468 79.7037L189.851 78.78ZM181.931 73.39L181.213 74.0854L181.218 74.0913L181.224 74.0971L181.931 73.39ZM176.651 65.47L175.727 65.853L175.731 65.8625L175.736 65.872L176.651 65.47ZM174.781 53.37V52.37H173.781V53.37H174.781ZM199.531 53.37H200.531V52.37H199.531V53.37ZM201.401 57.77L200.794 58.5644L200.819 58.5841L200.846 58.6021L201.401 57.77ZM223.071 57.66L222.364 56.9529L222.35 56.967L222.336 56.9817L223.071 57.66ZM223.071 51.06L222.364 51.7671L222.378 51.7812L222.393 51.7948L223.071 51.06ZM188.641 47.87L188.239 48.7856L188.249 48.7898L188.258 48.7937L188.641 47.87ZM180.721 42.59L180.003 43.2854L180.014 43.2972L180.026 43.3086L180.721 42.59ZM175.441 34.67L174.517 35.053L174.521 35.0625L174.526 35.072L175.441 34.67ZM175.441 15.53L174.525 15.128L174.521 15.1389L175.441 15.53ZM180.721 7.60999L180.014 6.90289L180.008 6.90868L180.003 6.91457L180.721 7.60999ZM188.641 2.33L189.024 3.25374L189.034 3.24979L189.043 3.24564L188.641 2.33ZM233.851 2.33L233.449 3.24564L233.459 3.24979L233.468 3.25374L233.851 2.33ZM241.661 7.60999L240.943 8.30542L240.948 8.31131L240.954 8.3171L241.661 7.60999ZM246.941 15.53L246.017 15.913L246.023 15.9268L246.029 15.9404L246.941 15.53ZM248.921 27.63V28.63H249.921V27.63H248.921ZM225.171 27.63V26.64H223.171V27.63H225.171ZM225.171 26.64C225.171 24.9149 224.28 23.5304 222.746 22.5079L221.636 24.172C222.743 24.9096 223.171 25.7251 223.171 26.64H225.171ZM222.799 22.5456C221.423 21.494 219.969 20.91 218.451 20.91V22.91C219.427 22.91 220.466 23.2793 221.584 24.1344L222.799 22.5456ZM218.451 20.91H203.931V22.91H218.451V20.91ZM203.931 20.91C202.34 20.91 200.95 21.4965 199.814 22.6329L201.228 24.0471C201.999 23.2768 202.883 22.91 203.931 22.91V20.91ZM199.786 22.6617C198.733 23.8033 198.201 25.1835 198.201 26.75H200.201C200.201 25.6765 200.55 24.7833 201.256 24.0183L199.786 22.6617ZM198.201 26.75C198.201 28.2614 198.746 29.5792 199.814 30.6471L201.228 29.2329C200.536 28.5408 200.201 27.732 200.201 26.75H198.201ZM199.843 30.6748C200.984 31.7286 202.365 32.26 203.931 32.26V30.26C202.858 30.26 201.965 29.9114 201.199 29.2052L199.843 30.6748ZM203.931 32.26H225.381V30.26H203.931V32.26ZM225.381 32.26C228.696 32.26 231.785 32.894 234.659 34.1556L235.463 32.3244C232.324 30.946 228.959 30.26 225.381 30.26V32.26ZM234.678 34.1637C237.562 35.3596 240.05 37.0432 242.153 39.2154L243.59 37.8246C241.292 35.4501 238.573 33.6137 235.444 32.3163L234.678 34.1637ZM242.176 39.2386C244.348 41.3407 246.032 43.8289 247.227 46.713L249.075 45.947C247.777 42.8178 245.941 40.0992 243.567 37.8014L242.176 39.2386ZM247.236 46.732C248.498 49.6084 249.131 52.6612 249.131 55.9H251.131C251.131 52.3922 250.444 49.0649 249.067 45.928L247.236 46.732ZM249.131 55.9C249.131 59.1388 248.498 62.1916 247.236 65.068L249.067 65.872C250.444 62.7351 251.131 59.4078 251.131 55.9H249.131ZM247.227 65.087C246.03 67.974 244.343 70.5035 242.164 72.6829L243.578 74.0971C245.946 71.7298 247.779 68.9793 249.075 65.853L247.227 65.087ZM242.153 72.6946C240.046 74.8711 237.552 76.5945 234.659 77.8644L235.463 79.6956C238.584 78.3255 241.296 76.4556 243.59 74.0854L242.153 72.6946ZM234.678 77.8563C231.8 79.0497 228.704 79.65 225.381 79.65V81.65C228.951 81.65 232.309 81.0037 235.444 79.7037L234.678 77.8563ZM225.381 79.65H199.531V81.65H225.381V79.65ZM199.531 79.65C196.208 79.65 193.112 79.0497 190.234 77.8563L189.468 79.7037C192.603 81.0037 195.961 81.65 199.531 81.65V79.65ZM190.253 77.8644C187.358 76.5932 184.822 74.8665 182.638 72.6829L181.224 74.0971C183.587 76.4602 186.331 78.3268 189.449 79.6956L190.253 77.8644ZM182.65 72.6946C180.535 70.5098 178.841 67.9701 177.567 65.068L175.736 65.872C177.101 68.9832 178.927 71.7235 181.213 74.0854L182.65 72.6946ZM177.575 65.087C176.38 62.2062 175.781 59.1468 175.781 55.9H173.781C173.781 59.3999 174.429 62.7205 175.727 65.853L177.575 65.087ZM175.781 55.9V53.37H173.781V55.9H175.781ZM174.781 54.37H199.531V52.37H174.781V54.37ZM198.531 53.37V54.36H200.531V53.37H198.531ZM198.531 54.36C198.531 56.0521 199.352 57.462 200.794 58.5644L202.009 56.9756C200.957 56.1713 200.531 55.3079 200.531 54.36H198.531ZM200.846 58.6021C202.286 59.5618 203.76 60.09 205.251 60.09V58.09C204.249 58.09 203.156 57.7382 201.956 56.938L200.846 58.6021ZM205.251 60.09H219.771V58.09H205.251V60.09ZM219.771 60.09C221.365 60.09 222.733 59.5007 223.806 58.3383L222.336 56.9817C221.649 57.7259 220.818 58.09 219.771 58.09V60.09ZM223.778 58.3671C224.915 57.2307 225.501 55.8415 225.501 54.25H223.501C223.501 55.2985 223.134 56.1826 222.364 56.9529L223.778 58.3671ZM225.501 54.25C225.501 52.7117 224.898 51.3858 223.749 50.3252L222.393 51.7948C223.151 52.4942 223.501 53.295 223.501 54.25H225.501ZM223.778 50.3529C222.698 49.2731 221.339 48.74 219.771 48.74V50.74C220.844 50.74 221.684 51.0869 222.364 51.7671L223.778 50.3529ZM219.771 48.74H198.321V50.74H219.771V48.74ZM198.321 48.74C194.998 48.74 191.902 48.1397 189.024 46.9463L188.258 48.7937C191.393 50.0937 194.751 50.74 198.321 50.74V48.74ZM189.043 46.9544C186.141 45.6803 183.601 43.9857 181.417 41.8714L180.026 43.3086C182.388 45.5943 185.128 47.4197 188.239 48.7856L189.043 46.9544ZM181.44 41.8946C179.325 39.7098 177.631 37.1701 176.357 34.268L174.526 35.072C175.891 38.1832 177.717 40.9235 180.003 43.2854L181.44 41.8946ZM176.365 34.287C175.17 31.4062 174.571 28.3468 174.571 25.1H172.571C172.571 28.5999 173.219 31.9205 174.517 35.053L176.365 34.287ZM174.571 25.1C174.571 21.7767 175.172 18.721 176.361 15.9211L174.521 15.1389C173.217 18.2057 172.571 21.53 172.571 25.1H174.571ZM176.357 15.932C177.631 13.0299 179.325 10.4902 181.44 8.30542L180.003 6.91457C177.717 9.27647 175.891 12.0168 174.526 15.128L176.357 15.932ZM181.428 8.3171C183.608 6.13772 186.137 4.4508 189.024 3.25374L188.258 1.40626C185.132 2.70254 182.381 4.53561 180.014 6.90289L181.428 8.3171ZM189.043 3.24564C191.917 1.98402 195.006 1.35 198.321 1.35V-0.650004C194.743 -0.650004 191.379 0.0359714 188.239 1.41435L189.043 3.24564ZM198.321 1.35H224.171V-0.650004H198.321V1.35ZM224.171 1.35C227.486 1.35 230.575 1.98402 233.449 3.24564L234.253 1.41435C231.113 0.0359714 227.749 -0.650004 224.171 -0.650004V1.35ZM233.468 3.25374C236.352 4.44959 238.84 6.1332 240.943 8.30542L242.38 6.91457C240.082 4.54013 237.363 2.70374 234.234 1.40626L233.468 3.25374ZM240.954 8.3171C243.133 10.4965 244.82 13.026 246.017 15.913L247.865 15.147C246.569 12.0207 244.736 9.27017 242.368 6.90289L240.954 8.3171ZM246.029 15.9404C247.287 18.7356 247.921 21.7845 247.921 25.1H249.921C249.921 21.5221 249.235 18.191 247.853 15.1196L246.029 15.9404ZM247.921 25.1V27.63H249.921V25.1H247.921ZM248.921 26.63H224.171V28.63H248.921V26.63ZM335.751 1.99999H336.751V0.999995H335.751V1.99999ZM335.751 27.63V28.63H336.751V27.63H335.751ZM310.121 27.63V26.63H309.121V27.63H310.121ZM310.121 79V80H311.121V79H310.121ZM284.381 79H283.381V80H284.381V79ZM284.381 27.63H285.381V26.63H284.381V27.63ZM258.751 27.63H257.751V28.63H258.751V27.63ZM258.751 1.99999V0.999995H257.751V1.99999H258.751ZM334.751 1.99999V27.63H336.751V1.99999H334.751ZM335.751 26.63H310.121V28.63H335.751V26.63ZM309.121 27.63V79H311.121V27.63H309.121ZM310.121 78H284.381V80H310.121V78ZM285.381 79V27.63H283.381V79H285.381ZM284.381 26.63H258.751V28.63H284.381V26.63ZM259.751 27.63V1.99999H257.751V27.63H259.751ZM258.751 2.99999H335.751V0.999995H258.751V2.99999ZM348.656 79H347.656V80H348.656V79ZM348.656 1.99999V0.999995H347.656V1.99999H348.656ZM412.786 1.99999H413.786V0.999995H412.786V1.99999ZM412.786 21.25V22.25H413.786V21.25H412.786ZM374.286 21.25V20.25H373.286V21.25H374.286ZM374.286 30.82H373.286V31.82H374.286V30.82ZM406.406 30.82H407.406V29.82H406.406V30.82ZM406.406 50.07V51.07H407.406V50.07H406.406ZM374.286 50.07V49.07H373.286V50.07H374.286ZM374.286 59.75H373.286V60.75H374.286V59.75ZM412.786 59.75H413.786V58.75H412.786V59.75ZM412.786 79V80H413.786V79H412.786ZM349.656 79V1.99999H347.656V79H349.656ZM348.656 2.99999H412.786V0.999995H348.656V2.99999ZM411.786 1.99999V21.25H413.786V1.99999H411.786ZM412.786 20.25H374.286V22.25H412.786V20.25ZM373.286 21.25V30.82H375.286V21.25H373.286ZM374.286 31.82H406.406V29.82H374.286V31.82ZM405.406 30.82V50.07H407.406V30.82H405.406ZM406.406 49.07H374.286V51.07H406.406V49.07ZM373.286 50.07V59.75H375.286V50.07H373.286ZM374.286 60.75H412.786V58.75H374.286V60.75ZM411.786 59.75V79H413.786V59.75H411.786ZM412.786 78H348.656V80H412.786V78ZM501.595 1.99999H502.595V0.999995H501.595V1.99999ZM501.595 27.63V28.63H502.595V27.63H501.595ZM475.965 27.63V26.63H474.965V27.63H475.965ZM475.965 79V80H476.965V79H475.965ZM450.225 79H449.225V80H450.225V79ZM450.225 27.63H451.225V26.63H450.225V27.63ZM424.595 27.63H423.595V28.63H424.595V27.63ZM424.595 1.99999V0.999995H423.595V1.99999H424.595ZM500.595 1.99999V27.63H502.595V1.99999H500.595ZM501.595 26.63H475.965V28.63H501.595V26.63ZM474.965 27.63V79H476.965V27.63H474.965ZM475.965 78H450.225V80H475.965V78ZM451.225 79V27.63H449.225V79H451.225ZM450.225 26.63H424.595V28.63H450.225V26.63ZM425.595 27.63V1.99999H423.595V27.63H425.595ZM424.595 2.99999H501.595V0.999995H424.595V2.99999ZM25.9195 175L25.5208 175.917L25.5256 175.919L25.9195 175ZM12.6095 166.09L11.8956 166.79L11.9024 166.797L11.9093 166.804L12.6095 166.09ZM3.69951 152.78L2.78244 153.179L3.69951 152.78ZM3.69951 120.33L4.61658 120.729L3.69951 120.33ZM12.6095 107.13L11.9024 106.423L12.6095 107.13ZM25.9195 98.11L25.5256 97.1908L25.5208 97.1929L25.9195 98.11ZM55.2895 96.9L55.6057 95.9513L55.2895 96.9ZM66.7295 102.84L66.1322 103.642L66.1418 103.649L66.1515 103.656L66.7295 102.84ZM75.8595 111.86L75.0514 112.449L75.0595 112.46L75.8595 111.86ZM81.9095 123.63L82.0411 124.621L83.2285 124.464L82.8614 123.323L81.9095 123.63ZM55.3995 127.15L54.5896 127.737L54.9396 128.22L55.5311 128.141L55.3995 127.15ZM49.5695 122.09L50.0387 121.207L49.5695 122.09ZM35.9295 121.54L36.3192 122.461L36.3274 122.457L36.3357 122.454L35.9295 121.54ZM27.3495 130.12L26.4357 129.714L26.4293 129.728L26.4234 129.743L27.3495 130.12ZM27.3495 142.88L26.4188 143.246L26.4268 143.266L26.4357 143.286L27.3495 142.88ZM30.8695 148.05L30.1624 148.757H30.1624L30.8695 148.05ZM35.9295 151.57L35.5105 152.478L35.5169 152.481L35.5234 152.484L35.9295 151.57ZM49.5695 151.02L49.1004 150.137L49.5695 151.02ZM55.3995 145.96L55.5311 144.969L54.9396 144.89L54.5896 145.373L55.3995 145.96ZM81.9095 149.48L82.8598 149.791L83.2346 148.647L82.0411 148.489L81.9095 149.48ZM75.8595 161.25L75.0536 160.658L75.0515 160.661L75.8595 161.25ZM66.7295 170.38L67.3156 171.19L67.3187 171.188L66.7295 170.38ZM55.2895 176.21L55.6057 177.159L55.2895 176.21ZM42.1995 177.3C36.6116 177.3 31.3192 176.226 26.3134 174.081L25.5256 175.919C30.7865 178.174 36.3474 179.3 42.1995 179.3V177.3ZM26.3182 174.083C21.3665 171.93 17.0329 169.028 13.3097 165.376L11.9093 166.804C15.8128 170.632 20.3525 173.67 25.5208 175.917L26.3182 174.083ZM13.3235 165.39C9.67184 161.667 6.7695 157.333 4.61658 152.381L2.78244 153.179C5.02953 158.347 8.06719 162.887 11.8956 166.79L13.3235 165.39ZM4.61658 152.381C2.474 147.453 1.39951 142.163 1.39951 136.5H-0.600488C-0.600488 142.424 0.525021 147.987 2.78244 153.179L4.61658 152.381ZM1.39951 136.5C1.39951 130.912 2.4733 125.658 4.61658 120.729L2.78244 119.931C0.525724 125.122 -0.600488 130.648 -0.600488 136.5H1.39951ZM4.61658 120.729C6.76875 115.779 9.66914 111.485 13.3166 107.837L11.9024 106.423C8.06988 110.255 5.03027 114.761 2.78244 119.931L4.61658 120.729ZM13.3166 107.837C17.0392 104.115 21.3706 101.178 26.3182 99.0271L25.5208 97.1929C20.3484 99.4418 15.8065 102.519 11.9024 106.423L13.3166 107.837ZM26.3134 99.0291C31.3192 96.8838 36.6116 95.81 42.1995 95.81V93.81C36.3474 93.81 30.7865 94.9362 25.5256 97.1908L26.3134 99.0291ZM42.1995 95.81C46.6422 95.81 50.8985 96.4904 54.9733 97.8487L55.6057 95.9513C51.3205 94.5229 46.8502 93.81 42.1995 93.81V95.81ZM54.9733 97.8487C59.055 99.2092 62.773 101.14 66.1322 103.642L67.3268 102.038C63.7927 99.4062 59.884 97.3774 55.6057 95.9513L54.9733 97.8487ZM66.1515 103.656C69.5822 106.086 72.5481 109.016 75.0515 112.449L76.6675 111.271C74.0376 107.664 70.9169 104.581 67.3075 102.024L66.1515 103.656ZM75.0595 112.46C77.6308 115.888 79.5972 119.712 80.9577 123.937L82.8614 123.323C81.4352 118.895 79.3682 114.872 76.6595 111.26L75.0595 112.46ZM81.7779 122.639L55.2679 126.159L55.5311 128.141L82.0411 124.621L81.7779 122.639ZM56.2095 126.563C54.5789 124.312 52.5184 122.524 50.0387 121.207L49.1004 122.973C51.314 124.149 53.1402 125.735 54.5896 127.737L56.2095 126.563ZM50.0387 121.207C47.5528 119.886 44.9357 119.22 42.1995 119.22V121.22C44.5967 121.22 46.8929 121.8 49.1004 122.973L50.0387 121.207ZM42.1995 119.22C39.8618 119.22 37.6332 119.688 35.5234 120.626L36.3357 122.454C38.1858 121.632 40.1372 121.22 42.1995 121.22V119.22ZM35.5399 120.619C33.5144 121.476 31.72 122.685 30.1624 124.243L31.5766 125.657C32.9524 124.281 34.5313 123.217 36.3192 122.461L35.5399 120.619ZM30.1624 124.243C28.6051 125.8 27.3633 127.627 26.4357 129.714L28.2633 130.526C29.0957 128.653 30.2006 127.033 31.5766 125.657L30.1624 124.243ZM26.4234 129.743C25.5649 131.85 25.1395 134.106 25.1395 136.5H27.1395C27.1395 134.348 27.5208 132.35 28.2756 130.497L26.4234 129.743ZM25.1395 136.5C25.1395 138.826 25.5665 141.076 26.4188 143.246L28.2803 142.514C27.5192 140.577 27.1395 138.574 27.1395 136.5H25.1395ZM26.4357 143.286C27.3633 145.373 28.6051 147.2 30.1624 148.757L31.5766 147.343C30.2006 145.967 29.0957 144.347 28.2633 142.474L26.4357 143.286ZM30.1624 148.757C31.7135 150.308 33.498 151.549 35.5105 152.478L36.3486 150.662C34.5477 149.831 32.9588 148.725 31.5766 147.343L30.1624 148.757ZM35.5234 152.484C37.6332 153.422 39.8618 153.89 42.1995 153.89V151.89C40.1372 151.89 38.1858 151.478 36.3357 150.656L35.5234 152.484ZM42.1995 153.89C44.9357 153.89 47.5528 153.224 50.0387 151.903L49.1004 150.137C46.8929 151.31 44.5967 151.89 42.1995 151.89V153.89ZM50.0387 151.903C52.5184 150.586 54.5789 148.798 56.2095 146.547L54.5896 145.373C53.1402 147.375 51.314 148.961 49.1004 150.137L50.0387 151.903ZM55.2679 146.951L81.7779 150.471L82.0411 148.489L55.5311 144.969L55.2679 146.951ZM80.9592 149.169C79.5987 153.322 77.6307 157.15 75.0536 160.658L76.6654 161.842C79.3683 158.163 81.4336 154.145 82.8598 149.791L80.9592 149.169ZM75.0515 160.661C72.546 164.097 69.5765 167.066 66.1403 169.572L67.3187 171.188C70.9225 168.56 74.0397 165.443 76.6675 161.839L75.0515 160.661ZM66.1434 169.57C62.782 172.001 59.0603 173.899 54.9733 175.261L55.6057 177.159C59.8787 175.734 63.7836 173.745 67.3156 171.19L66.1434 169.57ZM54.9733 175.261C50.8985 176.62 46.6422 177.3 42.1995 177.3V179.3C46.8502 179.3 51.3205 178.587 55.6057 177.159L54.9733 175.261ZM146.229 98L147.177 97.6842L146.95 97H146.229V98ZM171.859 175V176H173.245L172.807 174.684L171.859 175ZM144.908 175L143.958 175.311L144.184 176H144.908V175ZM142.818 168.62L143.769 168.309L143.543 167.62H142.818V168.62ZM113.998 168.62V167.62H113.274L113.048 168.309L113.998 168.62ZM111.909 175V176H112.633L112.859 175.311L111.909 175ZM84.9585 175L84.0097 174.684L83.5717 176H84.9585V175ZM110.589 98V97H109.867L109.64 97.6842L110.589 98ZM120.489 149.37L119.539 149.056L119.105 150.37H120.489V149.37ZM136.438 149.37V150.37H137.828L137.387 149.052L136.438 149.37ZM128.408 125.39L129.357 125.072L128.402 122.221L127.459 125.076L128.408 125.39ZM145.28 98.3158L170.91 175.316L172.807 174.684L147.177 97.6842L145.28 98.3158ZM171.859 174H144.908V176H171.859V174ZM145.859 174.689L143.769 168.309L141.868 168.931L143.958 175.311L145.859 174.689ZM142.818 167.62H113.998V169.62H142.818V167.62ZM113.048 168.309L110.958 174.689L112.859 175.311L114.949 168.931L113.048 168.309ZM111.909 174H84.9585V176H111.909V174ZM85.9073 175.316L111.537 98.3158L109.64 97.6842L84.0097 174.684L85.9073 175.316ZM110.589 99H146.229V97H110.589V99ZM120.489 150.37H136.438V148.37H120.489V150.37ZM137.387 149.052L129.357 125.072L127.46 125.708L135.49 149.688L137.387 149.052ZM127.459 125.076L119.539 149.056L121.438 149.684L129.358 125.704L127.459 125.076ZM238.726 100.53L238.327 101.447L238.334 101.45L238.726 100.53ZM248.956 107.46L248.24 108.158L248.248 108.167L248.257 108.176L248.956 107.46ZM255.886 117.69L254.965 118.082L254.968 118.088L255.886 117.69ZM256.986 139.36L256.032 139.058L256.03 139.065L256.028 139.073L256.986 139.36ZM253.246 147.61L254.085 148.153L254.092 148.142L253.246 147.61ZM239.936 159.16L239.518 158.251L238.382 158.773L239.141 159.767L239.936 159.16ZM252.036 175V176H254.058L252.83 174.393L252.036 175ZM223.766 175L222.95 175.579L223.249 176H223.766V175ZM214.636 162.13L215.451 161.551L215.152 161.13H214.636V162.13ZM207.046 162.13V161.13H206.046V162.13H207.046ZM207.046 175V176H208.046V175H207.046ZM181.416 175H180.416V176H181.416V175ZM181.416 98V97H180.416V98H181.416ZM207.046 123.63V122.63H206.046V123.63H207.046ZM207.046 136.5H206.046V137.5H207.046V136.5ZM230.916 134.63L230.208 133.923L230.916 134.63ZM230.916 125.5L230.208 126.207L230.916 125.5ZM226.296 99C230.564 99 234.571 99.8173 238.327 101.447L239.124 99.6126C235.106 97.8694 230.827 97 226.296 97V99ZM238.334 101.45C242.178 103.088 245.476 105.324 248.24 108.158L249.672 106.762C246.715 103.729 243.193 101.346 239.117 99.61L238.334 101.45ZM248.257 108.176C251.091 110.939 253.328 114.237 254.966 118.082L256.806 117.298C255.07 113.223 252.686 109.701 249.654 106.744L248.257 108.176ZM254.968 118.088C256.598 121.844 257.416 125.852 257.416 130.12H259.416C259.416 125.588 258.546 121.309 256.803 117.292L254.968 118.088ZM257.416 130.12C257.416 133.171 256.955 136.149 256.032 139.058L257.939 139.662C258.923 136.558 259.416 133.376 259.416 130.12H257.416ZM256.028 139.073C255.173 141.921 253.964 144.588 252.399 147.078L254.092 148.142C255.754 145.498 257.038 142.666 257.943 139.647L256.028 139.073ZM252.406 147.067C250.844 149.48 248.963 151.646 246.759 153.566L248.072 155.074C250.415 153.034 252.42 150.726 254.085 148.153L252.406 147.067ZM246.759 153.566C244.557 155.484 242.144 157.045 239.518 158.251L240.353 160.069C243.154 158.782 245.728 157.116 248.072 155.074L246.759 153.566ZM239.141 159.767L251.241 175.607L252.83 174.393L240.73 158.553L239.141 159.767ZM252.036 174H223.766V176H252.036V174ZM224.581 174.421L215.451 161.551L213.82 162.709L222.95 175.579L224.581 174.421ZM214.636 161.13H207.046V163.13H214.636V161.13ZM206.046 162.13V175H208.046V162.13H206.046ZM207.046 174H181.416V176H207.046V174ZM182.416 175V98H180.416V175H182.416ZM181.416 99H226.296V97H181.416V99ZM226.296 122.63H207.046V124.63H226.296V122.63ZM206.046 123.63V136.5H208.046V123.63H206.046ZM207.046 137.5H226.296V135.5H207.046V137.5ZM226.296 137.5C228.382 137.5 230.18 136.779 231.623 135.337L230.208 133.923C229.157 134.974 227.875 135.5 226.296 135.5V137.5ZM231.623 135.337C233.056 133.903 233.786 132.146 233.786 130.12H231.786C231.786 131.614 231.268 132.863 230.208 133.923L231.623 135.337ZM233.786 130.12C233.786 128.033 233.065 126.235 231.623 124.793L230.208 126.207C231.259 127.258 231.786 128.54 231.786 130.12H233.786ZM231.623 124.793C230.18 123.351 228.382 122.63 226.296 122.63V124.63C227.875 124.63 229.157 125.156 230.208 126.207L231.623 124.793Z" fill="#22ADAA" fill-opacity="0.7"/>
</svg>
