<svg width="717" height="837" viewBox="0 0 717 837" fill="none" xmlns="http://www.w3.org/2000/svg">
<g clip-path="url(#clip0_79_1350)">
<path d="M360.405 54.8035L-15.7881 241.064C-31.5673 248.877 -38.0485 268.069 -30.2359 283.849L203.04 754.999C210.852 770.778 230.045 777.259 245.823 769.447L622.018 583.186C637.796 575.374 644.277 556.181 636.464 540.402C625.44 518.137 409.628 82.257 403.189 69.2518C395.377 53.4721 376.184 46.9909 360.405 54.8035ZM-14.7559 276.184C-18.3424 268.941 -15.3673 260.13 -8.12368 256.544L368.07 70.2834C375.313 66.697 384.123 69.6721 387.71 76.9157L455.632 214.1L53.1666 413.368L-14.7559 276.184ZM614.354 567.705L238.158 753.966C230.916 757.552 222.106 754.577 218.519 747.334L60.8305 428.847L463.295 229.579L620.984 548.065C624.571 555.309 621.596 564.119 614.354 567.705Z" fill="#22ADAA"/>
<path d="M343.161 108.695L98.4223 229.87C94.1478 231.986 92.3982 237.167 94.5146 241.442C96.631 245.716 101.812 247.466 106.087 245.349L350.825 124.175C352.056 123.566 353.552 124.071 354.162 125.302L389.892 197.468C390.501 198.698 389.996 200.195 388.766 200.804L83.1264 352.133C81.8963 352.742 80.3996 352.236 79.7901 351.005L44.0596 278.84C43.4505 277.61 43.9554 276.112 45.1856 275.503L69.906 263.263C74.1805 261.147 75.9302 255.966 73.8138 251.691C71.6974 247.417 66.5161 245.667 62.2416 247.783L37.5212 260.023C27.7554 264.858 23.7439 276.737 28.5797 286.504L64.3101 358.67C69.1453 368.435 81.0251 372.448 90.7909 367.613L396.431 216.284C406.197 211.449 410.208 199.57 405.372 189.803L369.642 117.638C364.807 107.872 352.927 103.86 343.161 108.695Z" fill="#22ADAA"/>
<path d="M176.447 399.876L132.071 421.847C122.163 426.753 118.094 438.804 123 448.712L144.971 493.088C149.877 502.996 161.929 507.066 171.836 502.161L216.212 480.19C226.12 475.284 230.19 463.232 225.284 453.324L203.313 408.948C198.406 399.04 186.354 394.97 176.447 399.876ZM209.803 460.989C210.483 462.361 209.919 464.031 208.546 464.71L164.171 486.681C162.798 487.361 161.13 486.797 160.45 485.424L138.479 441.048C137.799 439.676 138.363 438.006 139.734 437.327L184.11 415.356C185.483 414.676 187.152 415.24 187.832 416.613L209.803 460.989Z" fill="#22ADAA"/>
<path d="M295.495 340.933L251.119 362.904C241.211 367.81 237.141 379.862 242.047 389.77L264.018 434.146C268.924 444.054 280.976 448.124 290.884 443.218L335.26 421.247C345.168 416.341 349.238 404.289 344.332 394.381L322.361 350.005C317.455 340.097 305.403 336.027 295.495 340.933ZM328.852 402.045C329.532 403.418 328.968 405.087 327.595 405.767L283.22 427.738C281.847 428.418 280.178 427.854 279.498 426.481L257.527 382.105C256.847 380.733 257.411 379.063 258.783 378.384L303.159 356.413C304.532 355.733 306.201 356.297 306.881 357.669L328.852 402.045Z" fill="#22ADAA"/>
<path d="M414.538 281.988L370.162 303.96C360.254 308.865 356.184 320.917 361.09 330.826L383.061 375.201C387.967 385.11 400.019 389.179 409.927 384.274L454.303 362.302C464.211 357.397 468.28 345.345 463.374 335.437L441.403 291.061C436.497 281.153 424.445 277.083 414.538 281.988ZM447.894 343.101C448.574 344.474 448.01 346.143 446.638 346.822L402.263 368.794C400.89 369.473 399.221 368.91 398.541 367.537L376.57 323.161C375.89 321.789 376.454 320.119 377.826 319.44L422.202 297.468C423.575 296.789 425.243 297.353 425.923 298.725L447.894 343.101Z" fill="#22ADAA"/>
<path d="M226.087 500.143L181.711 522.114C171.803 527.02 167.734 539.072 172.64 548.98L194.611 593.356C199.517 603.264 211.569 607.334 221.476 602.428L265.852 580.457C275.76 575.551 279.83 563.499 274.924 553.591L252.952 509.215C248.046 499.308 235.994 495.238 226.087 500.143ZM259.443 561.256C260.122 562.629 259.559 564.298 258.186 564.978L213.81 586.949C212.438 587.629 210.769 587.064 210.09 585.692L188.118 541.316C187.439 539.943 188.003 538.274 189.374 537.595L233.75 515.624C235.122 514.944 236.792 515.508 237.472 516.88L259.443 561.256Z" fill="#22ADAA"/>
<path d="M345.132 441.204L300.756 463.175C290.848 468.081 286.778 480.133 291.683 490.041L313.655 534.417C318.561 544.325 330.613 548.395 340.521 543.489L384.897 521.518C394.805 516.612 398.875 504.56 393.969 494.652L371.997 450.276C367.092 440.368 355.04 436.298 345.132 441.204ZM378.489 502.317C379.168 503.689 378.605 505.359 377.232 506.038L332.856 528.01C331.484 528.689 329.814 528.125 329.135 526.753L307.163 482.377C306.484 481.004 307.048 479.335 308.42 478.655L352.796 456.684C354.168 456.004 355.838 456.568 356.518 457.941L378.489 502.317Z" fill="#22ADAA"/>
<path d="M275.73 600.411L231.354 622.382C221.446 627.288 217.377 639.339 222.283 649.247L244.254 693.623C249.16 703.531 261.212 707.601 271.119 702.696L315.495 680.725C325.403 675.819 329.473 663.767 324.567 653.859L302.596 609.483C297.689 599.575 285.637 595.505 275.73 600.411ZM309.086 661.524C309.766 662.896 309.202 664.566 307.83 665.245L263.454 687.217C262.081 687.896 260.413 687.332 259.733 685.959L237.762 641.584C237.082 640.211 237.646 638.541 239.018 637.862L283.393 615.891C284.766 615.212 286.435 615.775 287.115 617.148L309.086 661.524Z" fill="#22ADAA"/>
<path d="M394.78 541.463L350.404 563.434C340.496 568.34 336.426 580.392 341.332 590.3L363.303 634.676C368.209 644.584 380.261 648.654 390.169 643.748L434.545 621.777C444.453 616.871 448.523 604.819 443.617 594.911L421.646 550.535C416.74 540.627 404.688 536.557 394.78 541.463ZM428.137 602.575C428.817 603.948 428.253 605.617 426.881 606.297L382.505 628.268C381.132 628.948 379.463 628.384 378.783 627.012L356.812 582.636C356.132 581.263 356.696 579.594 358.069 578.914L402.444 556.943C403.817 556.263 405.486 556.827 406.166 558.2L428.137 602.575Z" fill="#22ADAA"/>
<path d="M464.184 382.259L419.808 404.23C409.9 409.136 405.83 421.188 410.736 431.096L437.587 485.327C439.704 489.602 444.885 491.352 449.159 489.235C453.434 487.119 455.184 481.938 453.067 477.663L426.216 423.432C425.537 422.059 426.1 420.39 427.473 419.71L471.849 397.739C473.221 397.059 474.89 397.623 475.569 398.996L547.185 543.64C547.865 545.013 547.301 546.682 545.93 547.362L501.554 569.333C500.181 570.012 498.512 569.449 497.832 568.076L470.981 513.845C468.865 509.57 463.684 507.821 459.409 509.937C455.135 512.053 453.385 517.235 455.501 521.509L482.352 575.741C487.258 585.649 499.31 589.719 509.218 584.813L553.594 562.841C563.502 557.936 567.571 545.884 562.665 535.976L491.049 391.332C486.143 381.423 474.091 377.354 464.184 382.259Z" fill="#22ADAA"/>
</g>
<g clip-path="url(#clip1_79_1350)">
<path d="M357.353 67.0769L-18.8399 253.337C-34.6191 261.15 -41.1002 280.343 -33.2876 296.122L199.988 767.272C207.801 783.052 226.993 789.533 242.771 781.721L618.966 595.46C634.744 587.648 641.225 568.455 633.413 552.676C622.389 530.41 406.576 94.5304 400.137 81.5252C392.325 65.7455 373.133 59.2644 357.353 67.0769ZM-17.8077 288.458C-21.3941 281.214 -18.419 272.404 -11.1754 268.817L365.018 82.5569C372.261 78.9704 381.072 81.9456 384.658 89.1891L452.581 226.373L50.1148 425.642L-17.8077 288.458ZM611.302 579.978L235.107 766.24C227.864 769.826 219.054 766.851 215.467 759.607L57.7787 441.121L460.244 241.853L617.932 560.339C621.52 567.582 618.544 576.392 611.302 579.978Z" fill="#1B1821"/>
<path d="M340.109 120.968L95.3706 242.143C91.096 244.259 89.3464 249.441 91.4628 253.715C93.5792 257.99 98.7604 259.739 103.035 257.623L347.774 136.448C349.004 135.839 350.501 136.344 351.11 137.576L386.841 209.741C387.45 210.971 386.945 212.469 385.715 213.078L80.0747 364.406C78.8445 365.015 77.3479 364.51 76.7383 363.279L41.0079 291.113C40.3988 289.883 40.9037 288.385 42.1338 287.776L66.8542 275.537C71.1288 273.42 72.8784 268.239 70.762 263.965C68.6456 259.69 63.4644 257.94 59.1898 260.057L34.4694 272.296C24.7036 277.132 20.6922 289.011 25.5279 298.778L61.2584 370.943C66.0936 380.709 77.9733 384.721 87.7391 379.886L393.379 228.558C403.145 223.723 407.156 211.843 402.32 202.077L366.59 129.911C361.755 120.145 349.875 116.133 340.109 120.968Z" fill="#1B1821"/>
<path d="M173.395 412.149L129.019 434.12C119.111 439.026 115.042 451.078 119.948 460.986L141.919 505.362C146.825 515.27 158.877 519.34 168.784 514.434L213.16 492.463C223.068 487.557 227.138 475.505 222.232 465.597L200.261 421.221C195.354 411.314 183.302 407.244 173.395 412.149ZM206.751 473.262C207.431 474.635 206.867 476.304 205.495 476.984L161.119 498.955C159.746 499.634 158.078 499.07 157.398 497.698L135.427 453.322C134.747 451.949 135.311 450.28 136.683 449.601L181.059 427.629C182.431 426.95 184.101 427.514 184.78 428.886L206.751 473.262Z" fill="#1B1821"/>
<path d="M292.443 353.206L248.067 375.177C238.159 380.083 234.089 392.135 238.995 402.043L260.966 446.419C265.872 456.327 277.924 460.397 287.832 455.491L332.208 433.52C342.116 428.614 346.186 416.562 341.28 406.654L319.309 362.278C314.403 352.37 302.351 348.3 292.443 353.206ZM325.8 414.319C326.48 415.691 325.916 417.361 324.544 418.04L280.168 440.011C278.795 440.691 277.126 440.127 276.446 438.755L254.475 394.379C253.795 393.006 254.359 391.337 255.732 390.657L300.107 368.686C301.48 368.006 303.149 368.57 303.829 369.943L325.8 414.319Z" fill="#1B1821"/>
<path d="M411.486 294.262L367.11 316.233C357.202 321.139 353.132 333.191 358.038 343.099L380.009 387.475C384.915 397.383 396.967 401.453 406.875 396.547L451.251 374.576C461.159 369.67 465.228 357.619 460.322 347.71L438.351 303.335C433.445 293.426 421.393 289.357 411.486 294.262ZM444.842 355.375C445.522 356.747 444.958 358.417 443.587 359.096L399.211 381.067C397.838 381.747 396.169 381.183 395.489 379.81L373.518 335.435C372.838 334.062 373.402 332.393 374.775 331.713L419.15 309.742C420.523 309.062 422.191 309.626 422.871 310.999L444.842 355.375Z" fill="#1B1821"/>
<path d="M223.035 512.417L178.659 534.388C168.751 539.294 164.682 551.345 169.588 561.253L191.559 605.629C196.465 615.537 208.517 619.607 218.424 614.702L262.8 592.731C272.708 587.825 276.778 575.773 271.872 565.865L249.901 521.489C244.994 511.581 232.942 507.511 223.035 512.417ZM256.391 573.53C257.071 574.902 256.507 576.572 255.134 577.251L210.759 599.222C209.386 599.902 207.718 599.338 207.038 597.965L185.067 553.589C184.387 552.217 184.951 550.547 186.322 549.868L230.698 527.897C232.071 527.217 233.74 527.781 234.42 529.154L256.391 573.53Z" fill="#1B1821"/>
<path d="M342.08 453.478L297.704 475.449C287.796 480.355 283.726 492.407 288.632 502.315L310.603 546.691C315.509 556.599 327.561 560.669 337.469 555.763L381.845 533.792C391.753 528.886 395.823 516.834 390.917 506.926L368.946 462.55C364.04 452.642 351.988 448.572 342.08 453.478ZM375.437 514.59C376.117 515.963 375.553 517.632 374.18 518.312L329.805 540.283C328.432 540.963 326.763 540.399 326.083 539.026L304.112 494.65C303.432 493.278 303.996 491.608 305.368 490.929L349.744 468.957C351.117 468.278 352.786 468.842 353.466 470.214L375.437 514.59Z" fill="#1B1821"/>
<path d="M272.678 612.684L228.303 634.655C218.394 639.561 214.326 651.613 219.231 661.521L241.203 705.897C246.108 715.805 258.16 719.875 268.068 714.969L312.443 692.998C322.352 688.092 326.421 676.04 321.516 666.132L299.544 621.756C294.638 611.849 282.585 607.779 272.678 612.684ZM306.035 673.797C306.714 675.17 306.15 676.839 304.778 677.519L260.402 699.49C259.03 700.17 257.361 699.605 256.682 698.233L234.71 653.857C234.031 652.484 234.594 650.815 235.966 650.136L280.342 628.165C281.714 627.485 283.384 628.049 284.063 629.421L306.035 673.797Z" fill="#1B1821"/>
<path d="M391.728 553.736L347.352 575.708C337.444 580.613 333.374 592.665 338.28 602.574L360.251 646.949C365.157 656.858 377.209 660.927 387.117 656.022L431.493 634.05C441.401 629.145 445.471 617.093 440.565 607.184L418.594 562.809C413.688 552.9 401.636 548.831 391.728 553.736ZM425.086 614.849C425.765 616.221 425.201 617.891 423.829 618.57L379.453 640.542C378.08 641.221 376.411 640.658 375.731 639.285L353.76 594.909C353.08 593.537 353.644 591.867 355.017 591.188L399.393 569.216C400.765 568.537 402.435 569.1 403.114 570.473L425.086 614.849Z" fill="#1B1821"/>
<path d="M461.132 394.532L416.757 416.504C406.848 421.409 402.779 433.461 407.684 443.369L434.535 497.601C436.652 501.875 441.833 503.625 446.108 501.509C450.382 499.392 452.132 494.211 450.015 489.936L423.164 435.705C422.485 434.333 423.049 432.663 424.421 431.983L468.797 410.012C470.169 409.333 471.838 409.897 472.517 411.269L544.134 555.914C544.813 557.286 544.25 558.956 542.878 559.635L498.502 581.606C497.13 582.286 495.46 581.722 494.781 580.35L467.93 526.118C465.813 521.844 460.632 520.094 456.357 522.21C452.083 524.327 450.333 529.508 452.45 533.783L479.301 588.014C484.206 597.922 496.258 601.992 506.167 597.086L550.542 575.115C560.451 570.209 564.519 558.158 559.614 548.249L487.997 403.605C483.092 393.697 471.04 389.627 461.132 394.532Z" fill="#1B1821"/>
</g>
<defs>
<clipPath id="clip0_79_1350">
<rect width="589.6" height="589.6" fill="white" transform="translate(-91.8882 278.736) rotate(-26.3409)"/>
</clipPath>
<clipPath id="clip1_79_1350">
<rect width="589.6" height="589.6" fill="white" transform="translate(-94.9399 291.01) rotate(-26.3409)"/>
</clipPath>
</defs>
</svg>
